:FULLY-SPECIFIED
:FORCE-ALL-JOINTS-BE-3DOF
:DEGREES
645
root 5.55654 16.4917 -2.99286 16.7787 13.6792 -1.60357
lfemur -18.9052 22.2405 -26.6581
ltibia 35.794 0 0
lfoot -36.0616 11.1601 0
ltoes 24.4023 0 0
rfemur -56.3108 -27.0141 28.3508
rtibia 63.2871 0 0
rfoot -5.66301 -3.64459 0
rtoes 4.47322 0 0
lowerback -0.859429 -3.57879 -5.0734
upperback -2.3293 -4.78204 0.816312
thorax -1.43621 -2.30694 3.67354
lowerneck -9.54489 -7.89572 -0.224257
upperneck 3.88804 -11.0784 7.87718
head 3.47601 -5.19356 1.95068
lclavicle 5.50634e-14 1.19271e-14 0
lhumerus -42.5451 -68.2693 122.827
lradius 73.7683 0 0
lwrist 24.8853 0 0
lhand -4.44354 2.86914 0
lfingers 7.12502 0 0
lthumb 21.328 31.7155 0
rclavicle 5.50634e-14 1.19271e-14 0
rhumerus -33.5991 4.42662 -75.4864
rradius 73.7453 0 0
rwrist -19.5242 0 0
rhand -28.5506 -37.3401 0
rfingers 7.12502 0 0
rthumb -1.91768 -787.311 0
646
root 5.54708 16.4628 -2.92818 17.0413 12.6031 -1.37424
lfemur -18.999 22.6878 -27.0078
ltibia 36.1159 -0 0
lfoot -36.2102 11.3373 0.00171948
ltoes 23.9243 -0 0
rfemur -57.3159 -27.5811 29.5042
rtibia 63.865 -0 0
rfoot -6.16159 -3.44128 0.00423662
rtoes 4.06383 -0 0
lowerback -0.805779 -3.62803 -5.20101
upperback -2.2476 -4.85104 0.659095
thorax -1.3789 -2.34375 3.58196
lowerneck -9.52089 -7.84684 -0.290446
upperneck 3.54105 -10.9817 7.943
head 3.38305 -5.15873 2.00358
lclavicle 4.33988e-14 9.14991e-15 -1.35847e-30
lhumerus -43.0935 -68.7309 123.668
lradius 73.6222 -0 0
lwrist 25.0137 0 0
lhand -4.444 3.12688 -0.00207012
lfingers 7.12502 -0 0
lthumb 21.3276 31.9734 -0.00195381
rclavicle 4.33988e-14 9.14991e-15 -1.35847e-30
rhumerus -34.9703 3.18399 -76.0359
rradius 71.729 -0 0
rwrist -18.5857 0 0
rhand -28.7357 -38.5728 0.00278208
rfingers 7.12502 -0 0
rthumb -2.09648 -68.5424 0.00268975
647
root 5.54001 16.4324 -2.85814 17.2556 11.4803 -1.11688
lfemur -18.953 23.1225 -27.3351
ltibia 36.3751 -0 0
lfoot -36.3442 11.4352 0.00437027
ltoes 23.4174 -0 0
rfemur -58.3576 -28.1357 30.7137
rtibia 64.5397 -0 0
rfoot -6.55727 -3.25395 -0.000623531
rtoes 3.67199 -0 0
lowerback -0.764363 -3.67623 -5.32597
upperback -2.16578 -4.91791 0.474902
thorax -1.31749 -2.3798 3.46043
lowerneck -9.52158 -7.7846 -0.350837
upperneck 3.35236 -10.8765 7.94187
head 3.32701 -5.11533 2.02639
lclavicle 2.76644e-14 5.19855e-15 -2.64917e-30
lhumerus -43.574 -69.1751 124.453
lradius 73.4594 -0 0
lwrist 25.0575 0 0
lhand -4.51365 3.32004 -0.00312451
lfingers 7.12502 -0 0
lthumb 21.2607 32.1741 -0.0029697
rclavicle 2.76644e-14 5.19855e-15 -2.64917e-30
rhumerus -36.2241 1.75787 -76.479
rradius 69.6044 -0 0
rwrist -17.8718 0 0
rhand -28.8977 -40.1416 0.00644535
rfingers 7.12502 -0 0
rthumb -2.25292 -70.1097 0.00622706
648
root 5.53479 16.4009 -2.78305 17.4263 10.3292 -0.837874
lfemur -18.789 23.5325 -27.6476
ltibia 36.5774 -0 0
lfoot -36.4726 11.4985 0.00679571
ltoes 22.8792 -0 0
rfemur -59.3971 -28.6622 31.9441
rtibia 65.2718 -0 0
rfoot -6.88873 -3.1221 -0.00973005
rtoes 3.32664 -0 0
lowerback -0.730918 -3.72717 -5.44746
upperback -2.08539 -4.98784 0.276417
thorax -1.25439 -2.4175 3.32177
lowerneck -9.54128 -7.70981 -0.405652
upperneck 3.27429 -10.761 7.88696
head 3.29594 -5.06384 2.02563
lclavicle 9.97692e-15 7.65013e-16 -3.00612e-30
lhumerus -43.9753 -69.6015 125.169
lradius 73.3015 -0 0
lwrist 25.0439 0 0
lhand -4.62494 3.46085 -0.00318936
lfingers 7.12502 -0 0
lthumb 21.1538 32.3269 -0.00304424
rclavicle 9.97692e-15 7.65013e-16 -3.00612e-30
rhumerus -37.3851 0.219776 -76.7975
rradius 67.4564 -0 0
rwrist -17.3418 0 0
rhand -29.037 -41.9077 0.00912822
rfingers 7.12502 -0 0
rthumb -2.38747 -71.8743 0.00881606
649
root 5.53089 16.3684 -2.70325 17.5585 9.16849 -0.543469
lfemur -18.5294 23.9053 -27.9534
ltibia 36.7287 -0 0
lfoot -36.6047 11.5719 0.0080869
ltoes 22.3068 -0 0
rfemur -60.3938 -29.1475 33.1577
rtibia 66.0218 -0 0
rfoot -7.19462 -3.08529 -0.0183592
rtoes 3.05668 -0 0
lowerback -0.70117 -3.78461 -5.56464
upperback -2.00796 -5.06605 0.0763078
thorax -1.192 -2.45931 3.17882
lowerneck -9.57431 -7.62328 -0.455111
upperneck 3.25923 -10.633 7.79131
head 3.27789 -5.00471 2.00777
lclavicle -7.54686e-15 -3.45873e-15 -2.20192e-30
lhumerus -44.2855 -70.0096 125.799
lradius 73.1701 -0 0
lwrist 25 0 0
lhand -4.7503 3.56156 -0.00253289
lfingers 7.12502 -0 0
lthumb 21.0333 32.441 -0.00241388
rclavicle -7.54686e-15 -3.45873e-15 -2.20192e-30
rhumerus -38.48 -1.35891 -76.9752
rradius 65.3703 -0 0
rwrist -16.9552 0 0
rhand -29.1541 -43.7324 0.00990787
rfingers 7.12502 -0 0
rthumb -2.50055 -73.6975 0.00956692
650
root 5.52779 16.3355 -2.61907 17.6577 8.01664 -0.239944
lfemur -18.1964 24.2284 -28.2613
ltibia 36.8348 -0 0
lfoot -36.7495 11.7002 0.00756925
ltoes 21.6979 -0 0
rfemur -61.3048 -29.5812 34.3152
rtibia 66.75 -0 0
rfoot -7.51357 -3.18314 -0.0220133
rtoes 2.89106 -0 0
lowerback -0.670826 -3.85231 -5.67668
upperback -1.93505 -5.1578 -0.112763
thorax -1.13274 -2.50771 3.04439
lowerneck -9.61498 -7.52578 -0.499427
upperneck 3.25959 -10.4904 7.6678
head 3.26091 -4.93839 1.97929
lclavicle -2.27901e-14 -6.7807e-15 -7.26913e-31
lhumerus -44.4915 -70.3991 126.327
lradius 73.0867 -0 0
lwrist 24.9529 0 0
lhand -4.86214 3.63442 -0.00152436
lfingers 7.12502 -0 0
lthumb 20.9259 32.5258 -0.00143317
rclavicle -2.27901e-14 -6.7807e-15 -7.26913e-31
rhumerus -39.5375 -2.90685 -76.9976
rradius 63.4312 -0 0
rwrist -16.6714 0 0
rhand -29.2493 -45.4768 0.00852695
rfingers 7.12502 -0 0
rthumb -2.59248 -75.4406 0.00823207
651
root 5.52494 16.3025 -2.53084 17.7296 6.89218 0.0663329
lfemur -17.813 24.4888 -28.5805
ltibia 36.9017 -0 0
lfoot -36.9162 11.9282 0.00486047
ltoes 21.0496 -0 0
rfemur -62.0858 -29.9552 35.3757
rtibia 67.417 -0 0
rfoot -7.88421 -3.45533 -0.0167867
rtoes 2.85868 -0 0
lowerback -0.635585 -3.93399 -5.78279
upperback -1.86819 -5.26842 -0.278139
thorax -1.07903 -2.56524 2.9313
lowerneck -9.65759 -7.41807 -0.538799
upperneck 3.22788 -10.3312 7.52906
head 3.23308 -4.8653 1.94664
lclavicle -3.36361e-14 -8.50891e-15 3.87313e-31
lhumerus -44.58 -70.7692 126.736
lradius 73.073 -0 0
lwrist 24.9296 0 0
lhand -4.93292 3.69167 -0.000552008
lfingers 7.12502 -0 0
lthumb 20.8579 32.5906 -0.000496051
rclavicle -3.36361e-14 -8.50891e-15 3.87313e-31
rhumerus -40.587 -4.35248 -76.8507
rradius 61.724 -0 0
rwrist -16.4497 0 0
rhand -29.3229 -47.0022 0.0051289
rfingers 7.12502 -0 0
rthumb -2.66357 -76.965 0.00495074
652
root 5.52183 16.2696 -2.43889 17.7807 5.81363 0.36883
lfemur -17.4017 24.6737 -28.9211
ltibia 36.9351 0 0
lfoot -37.114 12.3006 0
ltoes 20.3595 0 0
rfemur -62.6914 -30.2631 36.2973
rtibia 67.9832 0 0
rfoot -8.34533 -3.94159 0
rtoes 2.98849 0 0
lowerback -0.591138 -4.03337 -5.88217
upperback -1.80897 -5.40325 -0.407164
thorax -1.03332 -2.63444 2.85238
lowerneck -9.69647 -7.30093 -0.573404
upperneck 3.11671 -10.1537 7.38745
head 3.18248 -4.7859 1.91621
lclavicle -3.79679e-14 -7.95139e-15 0
lhumerus -44.5367 -71.1192 127.009
lradius 73.1505 0 0
lwrist 24.9573 0 0
lhand -4.93506 3.74556 0
lfingers 7.12502 0 0
lthumb 20.8558 32.6446 0
rclavicle -3.79679e-14 -7.95139e-15 0
rhumerus -41.6572 -5.62375 -76.5216
rradius 60.334 0 0
rwrist -16.2497 0 0
rhand -29.3753 -48.1698 0
rfingers 7.12502 0 0
rthumb -2.71414 -798.132 0
